<svg xmlns="http://www.w3.org/2000/svg" xmlns:xlink="http://www.w3.org/1999/xlink" width="400" zoomAndPan="magnify" viewBox="0 0 300 74.999997" height="100" preserveAspectRatio="xMidYMid meet" version="1.0"><defs><g/><clipPath id="id1"><path d="M 32 7 L 85 7 L 85 68 L 32 68 Z M 32 7 " clip-rule="nonzero"/></clipPath><clipPath id="id2"><path d="M 19.5 29.648438 L 71.707031 0.0820312 L 97.207031 45.113281 L 44.996094 74.679688 Z M 19.5 29.648438 " clip-rule="nonzero"/></clipPath><clipPath id="id3"><path d="M 37.183594 16.167969 L 79.933594 16.167969 L 79.933594 58.917969 L 37.183594 58.917969 Z M 37.183594 16.167969 " clip-rule="nonzero"/></clipPath></defs><g clip-path="url(#id1)"><g clip-path="url(#id2)"><path fill="#004aad" d="M 58.65625 7.476562 L 32.550781 22.257812 L 32.25 52.164062 L 58.050781 67.285156 L 84.15625 52.503906 L 84.457031 22.597656 L 58.65625 7.476562 " fill-opacity="1" fill-rule="nonzero"/></g></g><g clip-path="url(#id3)"><path fill="#5ce1e6" d="M 78.792969 46.335938 L 78.792969 41.886719 C 78.792969 41.683594 78.628906 41.519531 78.429688 41.519531 L 72.394531 41.519531 C 72.796875 40.367188 73.054688 39.144531 73.148438 37.882812 L 75.4375 37.882812 C 75.601562 38.535156 76.195312 39.023438 76.898438 39.023438 C 77.734375 39.023438 78.410156 38.347656 78.410156 37.515625 C 78.410156 36.683594 77.734375 36.003906 76.898438 36.003906 C 76.195312 36.003906 75.601562 36.492188 75.4375 37.148438 L 73.1875 37.148438 C 73.191406 37.019531 73.191406 36.890625 73.191406 36.757812 C 73.191406 35.675781 73.074219 34.621094 72.851562 33.605469 L 75.757812 33.605469 C 75.960938 33.605469 76.125 33.441406 76.125 33.238281 L 76.125 29.492188 C 76.78125 29.324219 77.265625 28.734375 77.265625 28.027344 C 77.265625 27.195312 76.589844 26.519531 75.757812 26.519531 C 74.925781 26.519531 74.246094 27.195312 74.246094 28.027344 C 74.246094 28.734375 74.734375 29.328125 75.390625 29.492188 L 75.390625 32.871094 L 72.667969 32.871094 C 71.378906 28.203125 67.828125 24.460938 63.273438 22.90625 L 63.273438 18.039062 L 67.355469 18.039062 C 67.519531 18.695312 68.113281 19.183594 68.816406 19.183594 C 69.648438 19.183594 70.328125 18.503906 70.328125 17.671875 C 70.328125 16.839844 69.648438 16.164062 68.816406 16.164062 C 68.113281 16.164062 67.519531 16.652344 67.355469 17.304688 L 62.90625 17.304688 C 62.703125 17.304688 62.539062 17.46875 62.539062 17.671875 L 62.539062 22.675781 C 61.378906 22.347656 60.160156 22.160156 58.902344 22.128906 L 58.902344 20.664062 C 59.554688 20.5 60.042969 19.90625 60.042969 19.199219 C 60.042969 18.367188 59.367188 17.691406 58.535156 17.691406 C 57.703125 17.691406 57.023438 18.367188 57.023438 19.199219 C 57.023438 19.90625 57.511719 20.5 58.167969 20.664062 L 58.167969 22.132812 C 56.945312 22.164062 55.757812 22.347656 54.625 22.664062 L 54.625 20.34375 C 54.625 20.140625 54.460938 19.976562 54.257812 19.976562 L 50.511719 19.976562 C 50.34375 19.324219 49.753906 18.835938 49.046875 18.835938 C 48.214844 18.835938 47.539062 19.511719 47.539062 20.34375 C 47.539062 21.175781 48.214844 21.855469 49.046875 21.855469 C 49.753906 21.855469 50.34375 21.367188 50.507812 20.710938 L 53.890625 20.710938 L 53.890625 22.890625 C 49.328125 24.429688 45.765625 28.164062 44.464844 32.828125 L 39.058594 32.828125 L 39.058594 28.746094 C 39.714844 28.582031 40.203125 27.988281 40.203125 27.285156 C 40.203125 26.453125 39.523438 25.773438 38.691406 25.773438 C 37.859375 25.773438 37.183594 26.453125 37.183594 27.285156 C 37.183594 27.988281 37.671875 28.582031 38.328125 28.746094 L 38.328125 33.195312 C 38.328125 33.398438 38.492188 33.5625 38.691406 33.5625 L 44.28125 33.5625 C 44.050781 34.589844 43.929688 35.660156 43.929688 36.757812 C 43.929688 36.90625 43.929688 37.054688 43.933594 37.199219 L 41.683594 37.199219 C 41.519531 36.546875 40.925781 36.058594 40.21875 36.058594 C 39.386719 36.058594 38.710938 36.734375 38.710938 37.566406 C 38.710938 38.398438 39.386719 39.078125 40.21875 39.078125 C 40.925781 39.078125 41.519531 38.589844 41.683594 37.933594 L 43.976562 37.933594 C 44.074219 39.164062 44.324219 40.351562 44.707031 41.476562 L 41.363281 41.476562 C 41.160156 41.476562 40.996094 41.640625 40.996094 41.84375 L 40.996094 45.59375 C 40.339844 45.757812 39.855469 46.347656 39.855469 47.054688 C 39.855469 47.886719 40.53125 48.5625 41.363281 48.5625 C 42.195312 48.5625 42.871094 47.886719 42.871094 47.054688 C 42.871094 46.347656 42.386719 45.757812 41.730469 45.59375 L 41.730469 42.210938 L 44.980469 42.210938 C 46.566406 46.144531 49.8125 49.234375 53.847656 50.613281 L 53.847656 57.042969 L 49.765625 57.042969 C 49.601562 56.386719 49.007812 55.898438 48.300781 55.898438 C 47.46875 55.898438 46.792969 56.578125 46.792969 57.410156 C 46.792969 58.242188 47.46875 58.917969 48.300781 58.917969 C 49.007812 58.917969 49.601562 58.429688 49.765625 57.777344 L 54.214844 57.777344 C 54.414062 57.777344 54.578125 57.609375 54.578125 57.410156 L 54.578125 50.839844 C 55.742188 51.167969 56.960938 51.359375 58.21875 51.386719 L 58.21875 54.417969 C 57.957031 54.484375 57.714844 54.617188 57.519531 54.8125 C 57.234375 55.097656 57.078125 55.476562 57.078125 55.882812 C 57.078125 56.714844 57.753906 57.390625 58.585938 57.390625 C 59.417969 57.390625 60.097656 56.714844 60.097656 55.882812 C 60.097656 55.175781 59.609375 54.582031 58.953125 54.417969 L 58.953125 51.386719 C 60.175781 51.351562 61.363281 51.167969 62.496094 50.851562 L 62.496094 54.738281 C 62.496094 54.8125 62.519531 54.878906 62.554688 54.9375 C 62.554688 54.9375 62.558594 54.941406 62.558594 54.941406 C 62.5625 54.945312 62.566406 54.949219 62.566406 54.953125 C 62.578125 54.96875 62.589844 54.984375 62.605469 54.996094 C 62.671875 55.066406 62.765625 55.105469 62.863281 55.105469 L 66.609375 55.105469 C 66.773438 55.761719 67.367188 56.246094 68.074219 56.246094 C 68.90625 56.246094 69.582031 55.570312 69.582031 54.738281 C 69.582031 53.90625 68.90625 53.226562 68.074219 53.226562 C 67.367188 53.226562 66.777344 53.714844 66.609375 54.371094 L 63.230469 54.371094 L 63.230469 50.628906 C 67.269531 49.261719 70.523438 46.179688 72.121094 42.253906 L 78.0625 42.253906 L 78.0625 46.335938 C 77.40625 46.5 76.917969 47.09375 76.917969 47.800781 C 76.917969 48.632812 77.597656 49.308594 78.429688 49.308594 C 79.261719 49.308594 79.9375 48.632812 79.9375 47.800781 C 79.9375 47.09375 79.449219 46.5 78.792969 46.335938 Z M 76.898438 36.738281 C 77.328125 36.738281 77.675781 37.085938 77.675781 37.515625 C 77.675781 37.941406 77.328125 38.292969 76.898438 38.292969 C 76.472656 38.292969 76.125 37.945312 76.125 37.515625 C 76.125 37.515625 76.125 37.511719 76.125 37.511719 C 76.125 37.085938 76.472656 36.738281 76.898438 36.738281 Z M 74.980469 28.027344 C 74.980469 27.597656 75.328125 27.25 75.757812 27.25 C 76.1875 27.25 76.535156 27.597656 76.535156 28.027344 C 76.535156 28.457031 76.1875 28.804688 75.757812 28.804688 C 75.328125 28.804688 74.980469 28.457031 74.980469 28.027344 Z M 68.816406 16.898438 C 69.246094 16.898438 69.59375 17.246094 69.59375 17.671875 C 69.59375 18.101562 69.246094 18.449219 68.816406 18.449219 C 68.390625 18.449219 68.042969 18.101562 68.042969 17.671875 C 68.042969 17.246094 68.390625 16.898438 68.816406 16.898438 Z M 49.046875 21.121094 C 48.617188 21.121094 48.269531 20.773438 48.269531 20.34375 C 48.269531 19.917969 48.617188 19.566406 49.046875 19.566406 C 49.476562 19.566406 49.824219 19.917969 49.824219 20.34375 C 49.824219 20.773438 49.476562 21.121094 49.046875 21.121094 Z M 38.691406 28.058594 C 38.265625 28.058594 37.917969 27.710938 37.917969 27.285156 C 37.917969 26.855469 38.265625 26.507812 38.691406 26.507812 C 39.121094 26.507812 39.46875 26.855469 39.46875 27.285156 C 39.46875 27.710938 39.121094 28.058594 38.691406 28.058594 Z M 40.21875 38.34375 C 39.792969 38.34375 39.445312 37.996094 39.445312 37.566406 C 39.445312 37.140625 39.792969 36.792969 40.21875 36.792969 C 40.648438 36.792969 40.996094 37.140625 40.996094 37.566406 C 40.996094 37.996094 40.648438 38.34375 40.21875 38.34375 Z M 42.140625 47.054688 C 42.140625 47.484375 41.792969 47.832031 41.363281 47.832031 C 40.933594 47.832031 40.585938 47.484375 40.585938 47.054688 C 40.585938 46.625 40.933594 46.277344 41.363281 46.277344 C 41.792969 46.277344 42.140625 46.625 42.140625 47.054688 Z M 48.300781 58.183594 C 47.875 58.183594 47.527344 57.835938 47.527344 57.410156 C 47.527344 56.980469 47.875 56.632812 48.300781 56.632812 C 48.730469 56.632812 49.078125 56.980469 49.078125 57.410156 C 49.078125 57.835938 48.730469 58.183594 48.300781 58.183594 Z M 68.074219 53.960938 C 68.503906 53.960938 68.851562 54.308594 68.851562 54.738281 C 68.851562 55.167969 68.503906 55.515625 68.074219 55.515625 C 67.644531 55.515625 67.296875 55.167969 67.296875 54.738281 C 67.296875 54.308594 67.644531 53.960938 68.074219 53.960938 Z M 57.757812 19.199219 C 57.757812 18.773438 58.105469 18.425781 58.535156 18.425781 C 58.960938 18.425781 59.308594 18.773438 59.308594 19.199219 C 59.308594 19.628906 58.960938 19.976562 58.535156 19.976562 C 58.105469 19.976562 57.757812 19.628906 57.757812 19.199219 Z M 59.363281 55.882812 C 59.363281 56.308594 59.015625 56.65625 58.585938 56.65625 C 58.160156 56.65625 57.808594 56.308594 57.808594 55.882812 C 57.808594 55.671875 57.890625 55.480469 58.039062 55.332031 C 58.183594 55.1875 58.378906 55.105469 58.585938 55.105469 C 58.585938 55.105469 58.585938 55.105469 58.589844 55.105469 C 59.015625 55.105469 59.363281 55.453125 59.363281 55.882812 Z M 58.558594 50.65625 C 50.894531 50.65625 44.660156 44.421875 44.660156 36.757812 C 44.660156 29.09375 50.894531 22.859375 58.558594 22.859375 C 66.222656 22.859375 72.460938 29.09375 72.460938 36.757812 C 72.460938 44.421875 66.222656 50.65625 58.558594 50.65625 Z M 78.429688 48.574219 C 78 48.574219 77.652344 48.226562 77.652344 47.800781 C 77.652344 47.371094 78 47.023438 78.429688 47.023438 C 78.855469 47.023438 79.203125 47.371094 79.203125 47.800781 C 79.203125 48.226562 78.855469 48.574219 78.429688 48.574219 Z M 78.429688 48.574219 " fill-opacity="1" fill-rule="nonzero"/></g><path fill="#5ce1e6" d="M 58.574219 48.414062 L 58.558594 48.414062 C 55.605469 48.414062 52.789062 47.308594 50.625 45.296875 C 50.601562 45.273438 50.582031 45.253906 50.558594 45.234375 C 50.546875 45.222656 50.535156 45.214844 50.523438 45.203125 C 50.511719 45.191406 50.503906 45.179688 50.492188 45.171875 L 50.425781 45.109375 C 50.28125 44.964844 50.050781 44.96875 49.910156 45.113281 C 49.765625 45.257812 49.769531 45.492188 49.914062 45.632812 L 49.984375 45.699219 C 49.996094 45.710938 50.007812 45.722656 50.023438 45.730469 C 50.03125 45.742188 50.042969 45.753906 50.054688 45.765625 C 50.078125 45.789062 50.101562 45.808594 50.125 45.832031 C 52.425781 47.96875 55.417969 49.148438 58.558594 49.148438 L 58.574219 49.148438 C 58.777344 49.148438 58.941406 48.984375 58.941406 48.78125 C 58.941406 48.578125 58.777344 48.414062 58.574219 48.414062 Z M 58.574219 48.414062 " fill-opacity="1" fill-rule="nonzero"/><path fill="#5ce1e6" d="M 69.160156 42.445312 C 68.984375 42.34375 68.761719 42.40625 68.660156 42.578125 C 67.179688 45.148438 64.804688 47.039062 61.984375 47.902344 C 61.980469 47.90625 61.976562 47.90625 61.976562 47.90625 L 61.894531 47.929688 C 61.878906 47.933594 61.867188 47.941406 61.851562 47.945312 C 61.835938 47.949219 61.824219 47.953125 61.808594 47.957031 L 61.71875 47.980469 C 61.523438 48.035156 61.410156 48.238281 61.46875 48.433594 C 61.511719 48.59375 61.660156 48.699219 61.820312 48.699219 C 61.851562 48.699219 61.886719 48.695312 61.917969 48.6875 L 62.011719 48.660156 C 62.027344 48.65625 62.042969 48.648438 62.058594 48.644531 C 62.074219 48.640625 62.089844 48.636719 62.105469 48.632812 C 62.136719 48.625 62.167969 48.613281 62.199219 48.605469 C 62.199219 48.605469 62.203125 48.601562 62.207031 48.601562 C 65.203125 47.679688 67.722656 45.671875 69.296875 42.945312 C 69.398438 42.769531 69.335938 42.546875 69.160156 42.445312 Z M 69.160156 42.445312 " fill-opacity="1" fill-rule="nonzero"/><path fill="#5ce1e6" d="M 69.289062 30.558594 C 69.1875 30.382812 68.964844 30.324219 68.789062 30.425781 C 68.613281 30.527344 68.554688 30.75 68.65625 30.925781 C 69.675781 32.691406 70.214844 34.707031 70.214844 36.757812 C 70.214844 37.640625 70.117188 38.519531 69.921875 39.371094 L 69.902344 39.460938 C 69.898438 39.476562 69.894531 39.488281 69.894531 39.503906 C 69.886719 39.519531 69.882812 39.53125 69.878906 39.546875 L 69.859375 39.636719 C 69.808594 39.835938 69.929688 40.03125 70.125 40.082031 C 70.152344 40.089844 70.183594 40.09375 70.214844 40.09375 C 70.378906 40.09375 70.527344 39.984375 70.570312 39.816406 L 70.59375 39.722656 C 70.597656 39.707031 70.597656 39.691406 70.601562 39.675781 C 70.605469 39.660156 70.609375 39.644531 70.613281 39.628906 L 70.636719 39.535156 C 70.84375 38.628906 70.949219 37.695312 70.949219 36.757812 C 70.949219 34.578125 70.375 32.433594 69.289062 30.558594 Z M 69.289062 30.558594 " fill-opacity="1" fill-rule="nonzero"/><path fill="#5ce1e6" d="M 46.90625 36.757812 C 46.90625 35.882812 47.003906 35.007812 47.195312 34.160156 L 47.214844 34.070312 C 47.21875 34.054688 47.222656 34.039062 47.222656 34.023438 C 47.230469 34.011719 47.234375 33.996094 47.238281 33.980469 L 47.257812 33.894531 C 47.308594 33.695312 47.191406 33.496094 46.992188 33.449219 C 46.796875 33.398438 46.597656 33.515625 46.546875 33.710938 L 46.523438 33.808594 C 46.519531 33.824219 46.519531 33.839844 46.515625 33.855469 C 46.511719 33.871094 46.507812 33.886719 46.503906 33.902344 L 46.480469 33.992188 C 46.480469 33.992188 46.480469 33.996094 46.480469 33.996094 C 46.277344 34.898438 46.171875 35.828125 46.171875 36.757812 C 46.171875 38.941406 46.746094 41.089844 47.839844 42.96875 C 47.90625 43.085938 48.03125 43.152344 48.15625 43.152344 C 48.21875 43.152344 48.28125 43.136719 48.339844 43.101562 C 48.515625 43 48.574219 42.777344 48.472656 42.601562 C 47.445312 40.835938 46.90625 38.8125 46.90625 36.757812 Z M 46.90625 36.757812 " fill-opacity="1" fill-rule="nonzero"/><path fill="#5ce1e6" d="M 47.953125 31.082031 C 48.011719 31.117188 48.074219 31.132812 48.136719 31.132812 C 48.261719 31.132812 48.386719 31.066406 48.453125 30.949219 C 49.933594 28.378906 52.304688 26.488281 55.125 25.617188 L 55.214844 25.589844 C 55.226562 25.585938 55.242188 25.582031 55.257812 25.574219 C 55.269531 25.574219 55.285156 25.570312 55.300781 25.566406 L 55.386719 25.539062 C 55.582031 25.484375 55.695312 25.28125 55.640625 25.085938 C 55.585938 24.894531 55.382812 24.78125 55.191406 24.835938 L 55.097656 24.859375 C 55.082031 24.867188 55.066406 24.871094 55.050781 24.878906 C 55.035156 24.878906 55.019531 24.882812 55.003906 24.886719 L 54.914062 24.914062 C 54.914062 24.914062 54.910156 24.917969 54.910156 24.917969 C 51.910156 25.839844 49.390625 27.851562 47.820312 30.582031 C 47.71875 30.757812 47.777344 30.980469 47.953125 31.082031 Z M 47.953125 31.082031 " fill-opacity="1" fill-rule="nonzero"/><path fill="#5ce1e6" d="M 58.535156 25.101562 L 58.558594 25.101562 C 61.519531 25.101562 64.339844 26.214844 66.503906 28.230469 L 66.570312 28.292969 C 66.582031 28.304688 66.59375 28.3125 66.605469 28.320312 C 66.617188 28.332031 66.625 28.34375 66.636719 28.355469 L 66.703125 28.417969 C 66.773438 28.488281 66.867188 28.523438 66.960938 28.523438 C 67.054688 28.523438 67.148438 28.484375 67.222656 28.410156 C 67.363281 28.265625 67.359375 28.035156 67.214844 27.894531 L 67.144531 27.828125 C 67.132812 27.816406 67.121094 27.804688 67.109375 27.796875 C 67.097656 27.78125 67.085938 27.769531 67.074219 27.761719 L 67.007812 27.695312 C 67.007812 27.695312 67.003906 27.695312 67.003906 27.695312 C 67.003906 27.695312 67.003906 27.691406 67.003906 27.691406 C 64.703125 25.550781 61.707031 24.371094 58.558594 24.371094 L 58.535156 24.371094 C 58.332031 24.371094 58.167969 24.535156 58.167969 24.738281 C 58.167969 24.9375 58.332031 25.101562 58.535156 25.101562 Z M 58.535156 25.101562 " fill-opacity="1" fill-rule="nonzero"/><path fill="#5ce1e6" d="M 68.128906 36.757812 C 68.128906 38.648438 67.578125 40.476562 66.539062 42.042969 C 66.539062 42.046875 66.539062 42.046875 66.539062 42.046875 C 66.523438 42.070312 66.503906 42.09375 66.488281 42.121094 C 66.480469 42.132812 66.472656 42.144531 66.464844 42.160156 C 66.457031 42.167969 66.445312 42.179688 66.4375 42.195312 L 66.386719 42.269531 C 66.269531 42.433594 66.308594 42.664062 66.472656 42.777344 C 66.539062 42.824219 66.613281 42.84375 66.683594 42.84375 C 66.800781 42.84375 66.914062 42.792969 66.984375 42.691406 L 67.039062 42.609375 C 67.050781 42.597656 67.058594 42.582031 67.066406 42.570312 C 67.074219 42.558594 67.085938 42.546875 67.09375 42.53125 C 67.113281 42.503906 67.132812 42.476562 67.148438 42.449219 C 68.269531 40.761719 68.863281 38.792969 68.863281 36.757812 C 68.863281 35.667969 68.695312 34.597656 68.359375 33.570312 C 68.296875 33.378906 68.089844 33.273438 67.898438 33.335938 C 67.707031 33.398438 67.601562 33.605469 67.664062 33.796875 C 67.972656 34.75 68.128906 35.746094 68.128906 36.757812 Z M 68.128906 36.757812 " fill-opacity="1" fill-rule="nonzero"/><path fill="#5ce1e6" d="M 55.527344 46.605469 C 55.558594 46.617188 55.589844 46.625 55.621094 46.636719 C 55.636719 46.640625 55.652344 46.644531 55.667969 46.644531 C 55.679688 46.652344 55.695312 46.65625 55.710938 46.664062 L 55.800781 46.6875 C 55.804688 46.6875 55.804688 46.6875 55.804688 46.6875 C 56.699219 46.9375 57.625 47.0625 58.558594 47.0625 C 60.757812 47.0625 62.855469 46.378906 64.625 45.089844 C 64.789062 44.96875 64.824219 44.738281 64.703125 44.578125 C 64.585938 44.414062 64.355469 44.378906 64.191406 44.496094 C 62.546875 45.695312 60.601562 46.328125 58.558594 46.328125 C 57.691406 46.328125 56.832031 46.210938 56 45.980469 L 55.914062 45.957031 C 55.898438 45.953125 55.886719 45.949219 55.871094 45.949219 C 55.855469 45.941406 55.84375 45.9375 55.828125 45.933594 L 55.742188 45.90625 C 55.550781 45.847656 55.34375 45.957031 55.285156 46.148438 C 55.226562 46.34375 55.332031 46.546875 55.527344 46.605469 Z M 55.527344 46.605469 " fill-opacity="1" fill-rule="nonzero"/><path fill="#5ce1e6" d="M 52.515625 45.101562 C 52.582031 45.148438 52.65625 45.171875 52.730469 45.171875 C 52.84375 45.171875 52.957031 45.121094 53.027344 45.019531 C 53.144531 44.855469 53.109375 44.628906 52.945312 44.507812 C 50.566406 42.78125 49.128906 40.113281 49 37.183594 C 49 37.183594 49 37.179688 49 37.179688 L 48.996094 37.089844 C 48.996094 37.074219 48.996094 37.058594 48.992188 37.042969 C 48.992188 37.03125 48.996094 37.015625 48.992188 37 L 48.992188 36.910156 C 48.988281 36.707031 48.820312 36.546875 48.621094 36.550781 C 48.417969 36.550781 48.257812 36.71875 48.257812 36.921875 L 48.261719 37.019531 C 48.261719 37.035156 48.261719 37.050781 48.265625 37.066406 C 48.265625 37.082031 48.261719 37.097656 48.265625 37.113281 C 48.265625 37.144531 48.265625 37.175781 48.269531 37.203125 C 48.269531 37.207031 48.269531 37.207031 48.269531 37.210938 C 48.402344 40.367188 49.953125 43.242188 52.515625 45.101562 Z M 52.515625 45.101562 " fill-opacity="1" fill-rule="nonzero"/><path fill="#5ce1e6" d="M 55.21875 27.011719 L 55.125 27.042969 C 55.109375 27.046875 55.097656 27.054688 55.082031 27.0625 C 55.066406 27.066406 55.050781 27.070312 55.035156 27.074219 C 55.007812 27.085938 54.976562 27.097656 54.949219 27.109375 C 54.945312 27.109375 54.945312 27.109375 54.945312 27.109375 C 52.023438 28.203125 49.710938 30.625 48.753906 33.59375 C 48.691406 33.785156 48.796875 33.992188 48.988281 34.054688 C 49.027344 34.066406 49.066406 34.070312 49.101562 34.070312 C 49.257812 34.070312 49.402344 33.972656 49.453125 33.816406 C 50.339844 31.0625 52.488281 28.8125 55.199219 27.796875 C 55.199219 27.796875 55.203125 27.796875 55.203125 27.792969 C 55.230469 27.785156 55.257812 27.773438 55.285156 27.765625 C 55.300781 27.757812 55.3125 27.753906 55.328125 27.746094 C 55.34375 27.742188 55.355469 27.738281 55.371094 27.734375 L 55.457031 27.703125 C 55.648438 27.636719 55.75 27.429688 55.683594 27.238281 C 55.617188 27.046875 55.410156 26.945312 55.21875 27.011719 Z M 55.21875 27.011719 " fill-opacity="1" fill-rule="nonzero"/><path fill="#5ce1e6" d="M 58.539062 27.191406 L 58.558594 27.191406 C 61.496094 27.191406 64.226562 28.507812 66.054688 30.808594 C 66.054688 30.808594 66.054688 30.808594 66.058594 30.808594 L 66.113281 30.878906 C 66.121094 30.890625 66.132812 30.902344 66.140625 30.914062 C 66.148438 30.925781 66.15625 30.941406 66.167969 30.953125 L 66.222656 31.023438 C 66.292969 31.117188 66.402344 31.167969 66.515625 31.167969 C 66.589844 31.167969 66.667969 31.144531 66.734375 31.097656 C 66.894531 30.972656 66.929688 30.746094 66.808594 30.582031 C 66.789062 30.558594 66.769531 30.53125 66.75 30.507812 C 66.738281 30.492188 66.726562 30.480469 66.71875 30.46875 C 66.707031 30.457031 66.699219 30.441406 66.691406 30.429688 L 66.632812 30.355469 C 66.632812 30.355469 66.632812 30.355469 66.628906 30.355469 C 64.660156 27.878906 61.71875 26.457031 58.558594 26.457031 L 58.539062 26.457031 C 58.335938 26.457031 58.171875 26.621094 58.171875 26.824219 C 58.171875 27.023438 58.335938 27.191406 58.539062 27.191406 Z M 58.539062 27.191406 " fill-opacity="1" fill-rule="nonzero"/><path fill="#5ce1e6" d="M 55.292969 29.304688 C 55.261719 29.316406 55.234375 29.328125 55.203125 29.34375 C 55.191406 29.351562 55.175781 29.355469 55.164062 29.367188 C 55.148438 29.371094 55.132812 29.375 55.117188 29.382812 C 55.089844 29.394531 55.0625 29.410156 55.03125 29.421875 C 55.03125 29.421875 55.03125 29.421875 55.03125 29.425781 C 52.230469 30.773438 50.421875 33.652344 50.421875 36.757812 L 50.421875 36.777344 C 50.421875 36.980469 50.585938 37.144531 50.789062 37.144531 C 50.992188 37.144531 51.15625 36.980469 51.15625 36.777344 L 51.15625 36.757812 C 51.15625 33.929688 52.800781 31.3125 55.351562 30.082031 C 55.375 30.070312 55.402344 30.058594 55.429688 30.046875 C 55.441406 30.039062 55.453125 30.035156 55.46875 30.027344 C 55.480469 30.023438 55.492188 30.015625 55.507812 30.011719 C 55.535156 30 55.558594 29.988281 55.585938 29.976562 C 55.773438 29.894531 55.855469 29.679688 55.773438 29.492188 C 55.695312 29.308594 55.476562 29.222656 55.292969 29.304688 Z M 55.292969 29.304688 " fill-opacity="1" fill-rule="nonzero"/><path fill="#5ce1e6" d="M 66.699219 36.753906 C 66.699219 36.550781 66.535156 36.390625 66.332031 36.390625 C 66.128906 36.390625 65.964844 36.554688 65.964844 36.757812 C 65.964844 39.589844 64.3125 42.210938 61.757812 43.4375 L 61.679688 43.476562 C 61.667969 43.480469 61.65625 43.488281 61.644531 43.496094 C 61.628906 43.5 61.617188 43.503906 61.601562 43.511719 L 61.523438 43.546875 C 61.339844 43.628906 61.253906 43.84375 61.335938 44.03125 C 61.394531 44.167969 61.53125 44.25 61.671875 44.25 C 61.71875 44.25 61.769531 44.238281 61.816406 44.21875 C 61.847656 44.207031 61.875 44.191406 61.902344 44.179688 C 61.917969 44.171875 61.933594 44.164062 61.945312 44.15625 C 61.960938 44.152344 61.976562 44.148438 61.992188 44.140625 L 62.074219 44.101562 C 62.074219 44.101562 62.074219 44.101562 62.078125 44.101562 C 64.882812 42.753906 66.699219 39.871094 66.699219 36.757812 Z M 66.699219 36.753906 " fill-opacity="1" fill-rule="nonzero"/><path fill="#5ce1e6" d="M 58.535156 29.355469 C 58.535156 29.355469 58.539062 29.355469 58.539062 29.355469 L 58.558594 29.355469 C 61.394531 29.355469 64.019531 31.007812 65.242188 33.566406 L 65.28125 33.644531 C 65.285156 33.65625 65.292969 33.667969 65.300781 33.679688 C 65.304688 33.695312 65.308594 33.707031 65.316406 33.722656 C 65.328125 33.75 65.339844 33.773438 65.351562 33.800781 C 65.410156 33.9375 65.546875 34.019531 65.6875 34.019531 C 65.734375 34.019531 65.785156 34.011719 65.832031 33.992188 C 66.019531 33.910156 66.101562 33.695312 66.023438 33.507812 C 66.011719 33.480469 65.996094 33.449219 65.984375 33.421875 C 65.976562 33.40625 65.96875 33.390625 65.960938 33.378906 C 65.957031 33.363281 65.953125 33.347656 65.945312 33.332031 C 65.929688 33.304688 65.917969 33.277344 65.902344 33.25 C 65.902344 33.25 65.902344 33.246094 65.902344 33.246094 C 64.558594 30.4375 61.675781 28.621094 58.558594 28.621094 L 58.535156 28.621094 C 58.332031 28.621094 58.167969 28.789062 58.167969 28.988281 C 58.171875 29.191406 58.335938 29.355469 58.535156 29.355469 Z M 58.535156 29.355469 " fill-opacity="1" fill-rule="nonzero"/><path fill="#5ce1e6" d="M 51.882812 39.964844 C 51.871094 39.9375 51.859375 39.910156 51.847656 39.886719 C 51.839844 39.871094 51.832031 39.859375 51.824219 39.847656 C 51.820312 39.832031 51.816406 39.820312 51.808594 39.808594 L 51.773438 39.726562 C 51.691406 39.542969 51.476562 39.457031 51.292969 39.539062 C 51.105469 39.621094 51.023438 39.835938 51.105469 40.023438 L 51.140625 40.109375 C 51.148438 40.121094 51.15625 40.136719 51.164062 40.152344 C 51.167969 40.164062 51.175781 40.179688 51.183594 40.195312 C 51.195312 40.222656 51.207031 40.25 51.222656 40.28125 C 52.570312 43.085938 55.449219 44.894531 58.558594 44.894531 L 58.574219 44.894531 C 58.773438 44.894531 58.9375 44.730469 58.9375 44.53125 C 58.9375 44.328125 58.773438 44.164062 58.574219 44.164062 L 58.558594 44.164062 C 55.730469 44.164062 53.109375 42.515625 51.882812 39.964844 Z M 51.882812 39.964844 " fill-opacity="1" fill-rule="nonzero"/><path fill="#5ce1e6" d="M 56.214844 41.597656 C 56.1875 41.585938 56.164062 41.574219 56.136719 41.5625 C 56.125 41.554688 56.113281 41.550781 56.101562 41.542969 C 56.089844 41.535156 56.078125 41.53125 56.0625 41.523438 C 56.039062 41.511719 56.015625 41.496094 55.988281 41.484375 C 55.8125 41.386719 55.589844 41.453125 55.492188 41.628906 C 55.394531 41.808594 55.460938 42.03125 55.640625 42.125 C 55.667969 42.140625 55.695312 42.15625 55.722656 42.171875 C 55.738281 42.179688 55.753906 42.1875 55.765625 42.191406 C 55.78125 42.199219 55.792969 42.207031 55.808594 42.214844 C 55.835938 42.230469 55.867188 42.246094 55.894531 42.257812 C 56.730469 42.664062 57.625 42.867188 58.558594 42.867188 C 60.738281 42.867188 62.765625 41.695312 63.855469 39.808594 C 63.957031 39.632812 63.898438 39.410156 63.722656 39.308594 C 63.546875 39.207031 63.324219 39.265625 63.222656 39.441406 C 62.261719 41.105469 60.476562 42.136719 58.558594 42.136719 C 57.738281 42.136719 56.949219 41.957031 56.214844 41.597656 Z M 56.214844 41.597656 " fill-opacity="1" fill-rule="nonzero"/><path fill="#5ce1e6" d="M 58.542969 31.382812 L 58.558594 31.382812 C 61.371094 31.382812 63.726562 33.574219 63.925781 36.375 C 63.925781 36.402344 63.929688 36.433594 63.929688 36.460938 C 63.929688 36.476562 63.933594 36.488281 63.933594 36.503906 C 63.933594 36.515625 63.933594 36.53125 63.933594 36.542969 C 63.933594 36.570312 63.9375 36.601562 63.9375 36.628906 C 63.941406 36.828125 64.105469 36.984375 64.300781 36.984375 C 64.304688 36.984375 64.308594 36.984375 64.3125 36.984375 C 64.515625 36.980469 64.675781 36.8125 64.667969 36.609375 C 64.667969 36.578125 64.667969 36.546875 64.667969 36.515625 C 64.664062 36.5 64.664062 36.484375 64.660156 36.46875 C 64.664062 36.453125 64.664062 36.4375 64.660156 36.417969 C 64.660156 36.386719 64.65625 36.355469 64.65625 36.324219 C 64.433594 33.140625 61.753906 30.648438 58.558594 30.648438 L 58.542969 30.648438 C 58.339844 30.648438 58.175781 30.8125 58.175781 31.015625 C 58.175781 31.21875 58.339844 31.382812 58.542969 31.382812 Z M 58.542969 31.382812 " fill-opacity="1" fill-rule="nonzero"/><path fill="#5ce1e6" d="M 55.367188 31.550781 C 55.339844 31.566406 55.3125 31.582031 55.285156 31.597656 C 55.273438 31.609375 55.257812 31.617188 55.246094 31.628906 C 55.230469 31.632812 55.21875 31.644531 55.203125 31.652344 C 55.179688 31.667969 55.152344 31.6875 55.125 31.703125 C 53.449219 32.84375 52.449219 34.734375 52.449219 36.757812 C 52.449219 37.835938 52.734375 38.898438 53.273438 39.824219 C 53.34375 39.941406 53.464844 40.007812 53.589844 40.007812 C 53.652344 40.007812 53.71875 39.992188 53.773438 39.957031 C 53.949219 39.855469 54.007812 39.632812 53.90625 39.457031 C 53.433594 38.640625 53.183594 37.707031 53.183594 36.757812 C 53.183594 34.976562 54.0625 33.316406 55.539062 32.3125 C 55.539062 32.3125 55.539062 32.3125 55.539062 32.308594 C 55.5625 32.292969 55.585938 32.277344 55.609375 32.261719 C 55.621094 32.253906 55.632812 32.246094 55.640625 32.238281 C 55.65625 32.234375 55.667969 32.226562 55.679688 32.21875 C 55.703125 32.203125 55.726562 32.1875 55.75 32.171875 C 55.921875 32.066406 55.976562 31.84375 55.871094 31.667969 C 55.765625 31.496094 55.539062 31.441406 55.367188 31.550781 Z M 55.367188 31.550781 " fill-opacity="1" fill-rule="nonzero"/><path fill="#5ce1e6" d="M 61.195312 38.882812 C 61.179688 38.902344 61.160156 38.925781 61.144531 38.945312 C 61.136719 38.953125 61.128906 38.964844 61.121094 38.976562 C 61.109375 38.984375 61.101562 38.992188 61.09375 39.003906 C 61.074219 39.023438 61.058594 39.042969 61.039062 39.0625 C 60.902344 39.210938 60.910156 39.441406 61.058594 39.582031 C 61.128906 39.644531 61.21875 39.679688 61.308594 39.679688 C 61.40625 39.679688 61.503906 39.640625 61.574219 39.5625 C 61.597656 39.539062 61.621094 39.515625 61.640625 39.488281 C 61.652344 39.476562 61.664062 39.464844 61.671875 39.453125 C 61.683594 39.441406 61.695312 39.429688 61.703125 39.417969 C 61.726562 39.390625 61.746094 39.367188 61.765625 39.34375 C 62.355469 38.613281 62.679688 37.695312 62.679688 36.757812 C 62.679688 34.488281 60.832031 32.640625 58.558594 32.640625 L 58.546875 32.640625 C 58.34375 32.640625 58.179688 32.804688 58.179688 33.007812 C 58.179688 33.210938 58.34375 33.375 58.546875 33.375 L 58.558594 33.375 C 60.425781 33.375 61.945312 34.890625 61.945312 36.757812 C 61.945312 37.539062 61.6875 38.273438 61.195312 38.882812 Z M 61.195312 38.882812 " fill-opacity="1" fill-rule="nonzero"/><path fill="#5ce1e6" d="M 55.539062 33.960938 C 55.515625 33.984375 55.496094 34.007812 55.472656 34.035156 C 55.464844 34.046875 55.453125 34.058594 55.445312 34.070312 C 55.433594 34.082031 55.421875 34.09375 55.410156 34.105469 C 55.390625 34.132812 55.371094 34.15625 55.351562 34.179688 C 55.351562 34.179688 55.347656 34.179688 55.347656 34.179688 C 54.765625 34.910156 54.441406 35.824219 54.441406 36.757812 C 54.441406 39.027344 56.289062 40.875 58.558594 40.875 L 58.566406 40.875 C 58.769531 40.875 58.929688 40.710938 58.929688 40.511719 C 58.929688 40.308594 58.761719 40.144531 58.558594 40.144531 C 56.695312 40.144531 55.175781 38.625 55.175781 36.757812 C 55.175781 35.980469 55.433594 35.246094 55.921875 34.640625 C 55.9375 34.621094 55.953125 34.597656 55.972656 34.578125 C 55.980469 34.570312 55.988281 34.558594 55.996094 34.546875 C 56.003906 34.539062 56.015625 34.527344 56.023438 34.519531 C 56.039062 34.5 56.058594 34.480469 56.074219 34.460938 C 56.214844 34.3125 56.203125 34.078125 56.054688 33.941406 C 55.910156 33.804688 55.675781 33.8125 55.539062 33.960938 Z M 55.539062 33.960938 " fill-opacity="1" fill-rule="nonzero"/><path fill="#5ce1e6" d="M 56.324219 37.082031 C 56.324219 37.097656 56.328125 37.117188 56.328125 37.136719 C 56.335938 37.167969 56.34375 37.203125 56.347656 37.238281 C 56.574219 38.269531 57.503906 39.019531 58.558594 39.019531 C 59.808594 39.019531 60.824219 38.007812 60.824219 36.757812 C 60.824219 35.511719 59.808594 34.496094 58.558594 34.496094 L 58.550781 34.496094 C 58.351562 34.496094 58.191406 34.660156 58.191406 34.863281 C 58.191406 35.066406 58.359375 35.230469 58.558594 35.230469 C 59.402344 35.230469 60.089844 35.914062 60.089844 36.757812 C 60.089844 37.601562 59.402344 38.289062 58.558594 38.289062 C 57.84375 38.289062 57.21875 37.78125 57.066406 37.085938 C 57.0625 37.0625 57.054688 37.035156 57.050781 37.011719 C 57.050781 37 57.046875 36.988281 57.042969 36.980469 C 57.042969 36.96875 57.042969 36.953125 57.042969 36.941406 C 57.039062 36.917969 57.035156 36.894531 57.035156 36.871094 C 57.019531 36.667969 56.84375 36.519531 56.644531 36.53125 C 56.441406 36.546875 56.289062 36.722656 56.304688 36.925781 C 56.308594 36.960938 56.308594 36.996094 56.3125 37.03125 C 56.316406 37.046875 56.320312 37.066406 56.324219 37.082031 Z M 56.324219 37.082031 " fill-opacity="1" fill-rule="nonzero"/><g fill="#004aad" fill-opacity="1"><g transform="translate(91.956603, 42.278753)"><g><path d="M 2.25 -1.546875 C 1.113281 -2.648438 0.546875 -4.046875 0.546875 -5.734375 C 0.546875 -7.429688 1.113281 -8.832031 2.25 -9.9375 C 3.382812 -11.039062 4.773438 -11.59375 6.421875 -11.59375 C 7.679688 -11.59375 8.804688 -11.253906 9.796875 -10.578125 C 10.785156 -9.910156 11.476562 -8.976562 11.875 -7.78125 L 8.546875 -7.78125 C 8.109375 -8.613281 7.410156 -9.03125 6.453125 -9.03125 C 5.503906 -9.03125 4.753906 -8.734375 4.203125 -8.140625 C 3.660156 -7.546875 3.390625 -6.75 3.390625 -5.75 C 3.390625 -4.75 3.660156 -3.945312 4.203125 -3.34375 C 4.753906 -2.75 5.503906 -2.453125 6.453125 -2.453125 C 7.410156 -2.453125 8.109375 -2.875 8.546875 -3.71875 L 11.875 -3.71875 C 11.476562 -2.519531 10.785156 -1.582031 9.796875 -0.90625 C 8.804688 -0.238281 7.679688 0.09375 6.421875 0.09375 C 4.773438 0.09375 3.382812 -0.453125 2.25 -1.546875 Z M 2.25 -1.546875 "/></g></g></g><g fill="#004aad" fill-opacity="1"><g transform="translate(107.844802, 42.278753)"><g><path d="M 4 -4.4375 L 4 0 L 1.21875 0 L 1.21875 -11.421875 L 5.734375 -11.421875 C 7.054688 -11.421875 8.085938 -11.078125 8.828125 -10.390625 C 9.566406 -9.710938 9.9375 -8.890625 9.9375 -7.921875 C 9.9375 -7.265625 9.734375 -6.617188 9.328125 -5.984375 C 8.929688 -5.359375 8.273438 -4.914062 7.359375 -4.65625 L 10.15625 0 L 6.90625 0 L 4.328125 -4.4375 Z M 4 -9.3125 L 4 -6.5625 L 5.734375 -6.5625 C 6.148438 -6.5625 6.476562 -6.6875 6.71875 -6.9375 C 6.96875 -7.1875 7.09375 -7.515625 7.09375 -7.921875 C 7.09375 -8.328125 6.96875 -8.660156 6.71875 -8.921875 C 6.46875 -9.179688 6.140625 -9.3125 5.734375 -9.3125 Z M 4 -9.3125 "/></g></g></g><g fill="#004aad" fill-opacity="1"><g transform="translate(122.170342, 42.278753)"><g><path d="M 6.984375 0 L 4.203125 0 L 4.203125 -3.671875 L 0.25 -11.421875 L 3.40625 -11.421875 L 5.59375 -6.265625 L 7.78125 -11.421875 L 10.9375 -11.421875 L 6.984375 -3.671875 Z M 6.984375 0 "/></g></g></g><g fill="#004aad" fill-opacity="1"><g transform="translate(136.805151, 42.278753)"><g><path d="M 9.9375 -7.921875 C 9.9375 -7.148438 9.65625 -6.410156 9.09375 -5.703125 C 8.800781 -5.328125 8.363281 -5.019531 7.78125 -4.78125 C 7.207031 -4.550781 6.523438 -4.4375 5.734375 -4.4375 L 4 -4.4375 L 4 0 L 1.21875 0 L 1.21875 -11.421875 L 5.734375 -11.421875 C 7.054688 -11.421875 8.085938 -11.078125 8.828125 -10.390625 C 9.566406 -9.710938 9.9375 -8.890625 9.9375 -7.921875 Z M 4 -6.5625 L 5.734375 -6.5625 C 6.148438 -6.5625 6.476562 -6.6875 6.71875 -6.9375 C 6.96875 -7.1875 7.09375 -7.515625 7.09375 -7.921875 C 7.09375 -8.328125 6.96875 -8.660156 6.71875 -8.921875 C 6.46875 -9.179688 6.140625 -9.3125 5.734375 -9.3125 L 4 -9.3125 Z M 4 -6.5625 "/></g></g></g><g fill="#004aad" fill-opacity="1"><g transform="translate(150.64236, 42.278753)"><g><path d="M 0.4375 -9.3125 L 0.4375 -11.421875 L 9.453125 -11.421875 L 9.453125 -9.3125 L 6.328125 -9.3125 L 6.328125 0 L 3.546875 0 L 3.546875 -9.3125 Z M 0.4375 -9.3125 "/></g></g></g><g fill="#004aad" fill-opacity="1"><g transform="translate(163.991232, 42.278753)"><g><path d="M 8.59375 -3.34375 C 9.144531 -3.945312 9.421875 -4.75 9.421875 -5.75 C 9.421875 -6.75 9.144531 -7.546875 8.59375 -8.140625 C 8.050781 -8.734375 7.320312 -9.03125 6.40625 -9.03125 C 5.488281 -9.03125 4.753906 -8.734375 4.203125 -8.140625 C 3.660156 -7.546875 3.390625 -6.75 3.390625 -5.75 C 3.390625 -4.75 3.660156 -3.945312 4.203125 -3.34375 C 4.753906 -2.75 5.488281 -2.453125 6.40625 -2.453125 C 7.320312 -2.453125 8.050781 -2.75 8.59375 -3.34375 Z M 2.25 -1.546875 C 1.113281 -2.648438 0.546875 -4.046875 0.546875 -5.734375 C 0.546875 -7.429688 1.113281 -8.832031 2.25 -9.9375 C 3.382812 -11.039062 4.773438 -11.59375 6.421875 -11.59375 C 8.066406 -11.59375 9.453125 -11.039062 10.578125 -9.9375 C 11.703125 -8.832031 12.265625 -7.429688 12.265625 -5.734375 C 12.265625 -4.046875 11.695312 -2.648438 10.5625 -1.546875 C 9.4375 -0.441406 8.050781 0.109375 6.40625 0.109375 C 4.769531 0.109375 3.382812 -0.441406 2.25 -1.546875 Z M 2.25 -1.546875 "/></g></g></g><g fill="#004aad" fill-opacity="1"><g transform="translate(180.270094, 42.278753)"><g/></g></g><g fill="#004aad" fill-opacity="1"><g transform="translate(188.60544, 42.278753)"><g><path d="M 4.171875 0 L 0.109375 -11.421875 L 3.078125 -11.421875 L 5.90625 -2.71875 L 8.75 -11.421875 L 11.703125 -11.421875 L 7.65625 0 Z M 4.171875 0 "/></g></g></g><g fill="#004aad" fill-opacity="1"><g transform="translate(203.875084, 42.278753)"><g><path d="M 8.59375 -3.34375 C 9.144531 -3.945312 9.421875 -4.75 9.421875 -5.75 C 9.421875 -6.75 9.144531 -7.546875 8.59375 -8.140625 C 8.050781 -8.734375 7.320312 -9.03125 6.40625 -9.03125 C 5.488281 -9.03125 4.753906 -8.734375 4.203125 -8.140625 C 3.660156 -7.546875 3.390625 -6.75 3.390625 -5.75 C 3.390625 -4.75 3.660156 -3.945312 4.203125 -3.34375 C 4.753906 -2.75 5.488281 -2.453125 6.40625 -2.453125 C 7.320312 -2.453125 8.050781 -2.75 8.59375 -3.34375 Z M 2.25 -1.546875 C 1.113281 -2.648438 0.546875 -4.046875 0.546875 -5.734375 C 0.546875 -7.429688 1.113281 -8.832031 2.25 -9.9375 C 3.382812 -11.039062 4.773438 -11.59375 6.421875 -11.59375 C 8.066406 -11.59375 9.453125 -11.039062 10.578125 -9.9375 C 11.703125 -8.832031 12.265625 -7.429688 12.265625 -5.734375 C 12.265625 -4.046875 11.695312 -2.648438 10.5625 -1.546875 C 9.4375 -0.441406 8.050781 0.109375 6.40625 0.109375 C 4.769531 0.109375 3.382812 -0.441406 2.25 -1.546875 Z M 2.25 -1.546875 "/></g></g></g><g fill="#004aad" fill-opacity="1"><g transform="translate(220.153946, 42.278753)"><g><path d="M 1.171875 -4.609375 L 1.171875 -11.421875 L 3.953125 -11.421875 L 3.953125 -4.609375 C 3.953125 -3.921875 4.117188 -3.390625 4.453125 -3.015625 C 4.796875 -2.648438 5.289062 -2.46875 5.9375 -2.46875 C 6.59375 -2.46875 7.09375 -2.648438 7.4375 -3.015625 C 7.789062 -3.390625 7.96875 -3.921875 7.96875 -4.609375 L 7.96875 -11.421875 L 10.75 -11.421875 L 10.75 -4.609375 C 10.75 -3.597656 10.507812 -2.722656 10.03125 -1.984375 C 9.5625 -1.253906 8.960938 -0.722656 8.234375 -0.390625 C 7.515625 -0.0546875 6.734375 0.109375 5.890625 0.109375 C 4.566406 0.109375 3.445312 -0.300781 2.53125 -1.125 C 1.625 -1.945312 1.171875 -3.109375 1.171875 -4.609375 Z M 1.171875 -4.609375 "/></g></g></g><g fill="#004aad" fill-opacity="1"><g transform="translate(235.504983, 42.278753)"><g><path d="M 1.21875 -11.421875 L 4 -11.421875 L 4 -2.109375 L 7.46875 -2.109375 L 7.46875 0 L 1.21875 0 Z M 1.21875 -11.421875 "/></g></g></g><g fill="#004aad" fill-opacity="1"><g transform="translate(246.754038, 42.278753)"><g><path d="M 0.4375 -9.3125 L 0.4375 -11.421875 L 9.453125 -11.421875 L 9.453125 -9.3125 L 6.328125 -9.3125 L 6.328125 0 L 3.546875 0 L 3.546875 -9.3125 Z M 0.4375 -9.3125 "/></g></g></g><g fill="#ffffff" fill-opacity="1"><g transform="translate(91.425625, 42.809727)"><g><path d="M 2.25 -1.546875 C 1.113281 -2.648438 0.546875 -4.046875 0.546875 -5.734375 C 0.546875 -7.429688 1.113281 -8.832031 2.25 -9.9375 C 3.382812 -11.039062 4.773438 -11.59375 6.421875 -11.59375 C 7.679688 -11.59375 8.804688 -11.253906 9.796875 -10.578125 C 10.785156 -9.910156 11.476562 -8.976562 11.875 -7.78125 L 8.546875 -7.78125 C 8.109375 -8.613281 7.410156 -9.03125 6.453125 -9.03125 C 5.503906 -9.03125 4.753906 -8.734375 4.203125 -8.140625 C 3.660156 -7.546875 3.390625 -6.75 3.390625 -5.75 C 3.390625 -4.75 3.660156 -3.945312 4.203125 -3.34375 C 4.753906 -2.75 5.503906 -2.453125 6.453125 -2.453125 C 7.410156 -2.453125 8.109375 -2.875 8.546875 -3.71875 L 11.875 -3.71875 C 11.476562 -2.519531 10.785156 -1.582031 9.796875 -0.90625 C 8.804688 -0.238281 7.679688 0.09375 6.421875 0.09375 C 4.773438 0.09375 3.382812 -0.453125 2.25 -1.546875 Z M 2.25 -1.546875 "/></g></g></g><g fill="#ffffff" fill-opacity="1"><g transform="translate(107.313823, 42.809727)"><g><path d="M 4 -4.4375 L 4 0 L 1.21875 0 L 1.21875 -11.421875 L 5.734375 -11.421875 C 7.054688 -11.421875 8.085938 -11.078125 8.828125 -10.390625 C 9.566406 -9.710938 9.9375 -8.890625 9.9375 -7.921875 C 9.9375 -7.265625 9.734375 -6.617188 9.328125 -5.984375 C 8.929688 -5.359375 8.273438 -4.914062 7.359375 -4.65625 L 10.15625 0 L 6.90625 0 L 4.328125 -4.4375 Z M 4 -9.3125 L 4 -6.5625 L 5.734375 -6.5625 C 6.148438 -6.5625 6.476562 -6.6875 6.71875 -6.9375 C 6.96875 -7.1875 7.09375 -7.515625 7.09375 -7.921875 C 7.09375 -8.328125 6.96875 -8.660156 6.71875 -8.921875 C 6.46875 -9.179688 6.140625 -9.3125 5.734375 -9.3125 Z M 4 -9.3125 "/></g></g></g><g fill="#ffffff" fill-opacity="1"><g transform="translate(121.639364, 42.809727)"><g><path d="M 6.984375 0 L 4.203125 0 L 4.203125 -3.671875 L 0.25 -11.421875 L 3.40625 -11.421875 L 5.59375 -6.265625 L 7.78125 -11.421875 L 10.9375 -11.421875 L 6.984375 -3.671875 Z M 6.984375 0 "/></g></g></g><g fill="#ffffff" fill-opacity="1"><g transform="translate(136.274173, 42.809727)"><g><path d="M 9.9375 -7.921875 C 9.9375 -7.148438 9.65625 -6.410156 9.09375 -5.703125 C 8.800781 -5.328125 8.363281 -5.019531 7.78125 -4.78125 C 7.207031 -4.550781 6.523438 -4.4375 5.734375 -4.4375 L 4 -4.4375 L 4 0 L 1.21875 0 L 1.21875 -11.421875 L 5.734375 -11.421875 C 7.054688 -11.421875 8.085938 -11.078125 8.828125 -10.390625 C 9.566406 -9.710938 9.9375 -8.890625 9.9375 -7.921875 Z M 4 -6.5625 L 5.734375 -6.5625 C 6.148438 -6.5625 6.476562 -6.6875 6.71875 -6.9375 C 6.96875 -7.1875 7.09375 -7.515625 7.09375 -7.921875 C 7.09375 -8.328125 6.96875 -8.660156 6.71875 -8.921875 C 6.46875 -9.179688 6.140625 -9.3125 5.734375 -9.3125 L 4 -9.3125 Z M 4 -6.5625 "/></g></g></g><g fill="#ffffff" fill-opacity="1"><g transform="translate(150.111381, 42.809727)"><g><path d="M 0.4375 -9.3125 L 0.4375 -11.421875 L 9.453125 -11.421875 L 9.453125 -9.3125 L 6.328125 -9.3125 L 6.328125 0 L 3.546875 0 L 3.546875 -9.3125 Z M 0.4375 -9.3125 "/></g></g></g><g fill="#ffffff" fill-opacity="1"><g transform="translate(163.460254, 42.809727)"><g><path d="M 8.59375 -3.34375 C 9.144531 -3.945312 9.421875 -4.75 9.421875 -5.75 C 9.421875 -6.75 9.144531 -7.546875 8.59375 -8.140625 C 8.050781 -8.734375 7.320312 -9.03125 6.40625 -9.03125 C 5.488281 -9.03125 4.753906 -8.734375 4.203125 -8.140625 C 3.660156 -7.546875 3.390625 -6.75 3.390625 -5.75 C 3.390625 -4.75 3.660156 -3.945312 4.203125 -3.34375 C 4.753906 -2.75 5.488281 -2.453125 6.40625 -2.453125 C 7.320312 -2.453125 8.050781 -2.75 8.59375 -3.34375 Z M 2.25 -1.546875 C 1.113281 -2.648438 0.546875 -4.046875 0.546875 -5.734375 C 0.546875 -7.429688 1.113281 -8.832031 2.25 -9.9375 C 3.382812 -11.039062 4.773438 -11.59375 6.421875 -11.59375 C 8.066406 -11.59375 9.453125 -11.039062 10.578125 -9.9375 C 11.703125 -8.832031 12.265625 -7.429688 12.265625 -5.734375 C 12.265625 -4.046875 11.695312 -2.648438 10.5625 -1.546875 C 9.4375 -0.441406 8.050781 0.109375 6.40625 0.109375 C 4.769531 0.109375 3.382812 -0.441406 2.25 -1.546875 Z M 2.25 -1.546875 "/></g></g></g><g fill="#ffffff" fill-opacity="1"><g transform="translate(179.739116, 42.809727)"><g/></g></g><g fill="#ffffff" fill-opacity="1"><g transform="translate(188.074462, 42.809727)"><g><path d="M 4.171875 0 L 0.109375 -11.421875 L 3.078125 -11.421875 L 5.90625 -2.71875 L 8.75 -11.421875 L 11.703125 -11.421875 L 7.65625 0 Z M 4.171875 0 "/></g></g></g><g fill="#ffffff" fill-opacity="1"><g transform="translate(203.344106, 42.809727)"><g><path d="M 8.59375 -3.34375 C 9.144531 -3.945312 9.421875 -4.75 9.421875 -5.75 C 9.421875 -6.75 9.144531 -7.546875 8.59375 -8.140625 C 8.050781 -8.734375 7.320312 -9.03125 6.40625 -9.03125 C 5.488281 -9.03125 4.753906 -8.734375 4.203125 -8.140625 C 3.660156 -7.546875 3.390625 -6.75 3.390625 -5.75 C 3.390625 -4.75 3.660156 -3.945312 4.203125 -3.34375 C 4.753906 -2.75 5.488281 -2.453125 6.40625 -2.453125 C 7.320312 -2.453125 8.050781 -2.75 8.59375 -3.34375 Z M 2.25 -1.546875 C 1.113281 -2.648438 0.546875 -4.046875 0.546875 -5.734375 C 0.546875 -7.429688 1.113281 -8.832031 2.25 -9.9375 C 3.382812 -11.039062 4.773438 -11.59375 6.421875 -11.59375 C 8.066406 -11.59375 9.453125 -11.039062 10.578125 -9.9375 C 11.703125 -8.832031 12.265625 -7.429688 12.265625 -5.734375 C 12.265625 -4.046875 11.695312 -2.648438 10.5625 -1.546875 C 9.4375 -0.441406 8.050781 0.109375 6.40625 0.109375 C 4.769531 0.109375 3.382812 -0.441406 2.25 -1.546875 Z M 2.25 -1.546875 "/></g></g></g><g fill="#ffffff" fill-opacity="1"><g transform="translate(219.622968, 42.809727)"><g><path d="M 1.171875 -4.609375 L 1.171875 -11.421875 L 3.953125 -11.421875 L 3.953125 -4.609375 C 3.953125 -3.921875 4.117188 -3.390625 4.453125 -3.015625 C 4.796875 -2.648438 5.289062 -2.46875 5.9375 -2.46875 C 6.59375 -2.46875 7.09375 -2.648438 7.4375 -3.015625 C 7.789062 -3.390625 7.96875 -3.921875 7.96875 -4.609375 L 7.96875 -11.421875 L 10.75 -11.421875 L 10.75 -4.609375 C 10.75 -3.597656 10.507812 -2.722656 10.03125 -1.984375 C 9.5625 -1.253906 8.960938 -0.722656 8.234375 -0.390625 C 7.515625 -0.0546875 6.734375 0.109375 5.890625 0.109375 C 4.566406 0.109375 3.445312 -0.300781 2.53125 -1.125 C 1.625 -1.945312 1.171875 -3.109375 1.171875 -4.609375 Z M 1.171875 -4.609375 "/></g></g></g><g fill="#ffffff" fill-opacity="1"><g transform="translate(234.974005, 42.809727)"><g><path d="M 1.21875 -11.421875 L 4 -11.421875 L 4 -2.109375 L 7.46875 -2.109375 L 7.46875 0 L 1.21875 0 Z M 1.21875 -11.421875 "/></g></g></g><g fill="#ffffff" fill-opacity="1"><g transform="translate(246.22306, 42.809727)"><g><path d="M 0.4375 -9.3125 L 0.4375 -11.421875 L 9.453125 -11.421875 L 9.453125 -9.3125 L 6.328125 -9.3125 L 6.328125 0 L 3.546875 0 L 3.546875 -9.3125 Z M 0.4375 -9.3125 "/></g></g></g></svg>